<?xml version="1.0"?>
<svg version="1.1" xmlns="http://www.w3.org/2000/svg" width="400px" height="200px" style="border: dashed 2px #aaa"><path fill="#000000" d="M141.3,118l0-2.55l1.86-0.75l6.06-7.32l-5.58-7.26l-1.74-0.57l0-2.55l9-0.15l0,2.7l-1.5,0.51l3.09,4.11l2.94-3.99l-1.62-0.63l0-2.55l8.64-0.15l0,2.7l-1.98,0.6l-5.52,6.99l5.85,7.59l2.1,0.72l0,2.55l-9.3,0l0-2.55l1.38-0.6l-3.3-4.44l-3.36,4.32l1.89,0.72l0,2.55l-8.91,0z M179.0853,113.11l1.5,2.64c-0.75,0.66-3.09,2.55-6.45,2.55c-4.95,0-7.8-3.06-7.8-8.16c0-5.34,3-8.64,8.25-8.64c2.58,0,5.25,1.05,5.25,1.05l-0.15,4.92l-2.7,0l-0.42-2.13s-0.87-0.24-2.07-0.24c-2.16,0-3.51,1.44-3.51,4.44c0,3.27,1.26,5.16,3.75,5.16c2.1,0,3.42-1.05,4.35-1.59z M192.2706,101.5c4.86,0,7.56,2.94,7.56,8.1c0,5.4-3.15,8.7-8.01,8.7c-4.89,0-7.65-2.55-7.65-8.25c0-5.4,3.21-8.55,8.1-8.55z M192.1206,105.1c-2.19,0-3.3,1.2-3.3,4.8c0,3.3,0.96,4.8,3.15,4.8c2.16,0,3.21-1.35,3.21-4.95c0-3.06-0.9-4.65-3.06-4.65z M210.3759,101.8l0.21,2.07s2.85-2.31,5.52-2.31c2.91,0,4.56,2.07,4.56,5.34l0,7.95l2.1,0.75l0,2.4l-8.25,0l0-2.4l1.65-0.75l0-7.14c0-1.38-0.78-2.4-2.04-2.4c-1.86,0-3.21,1.71-3.21,1.71l0,7.83l1.65,0.75l0,2.4l-8.55,0l0-2.4l2.4-0.75l0-9.75l-2.4-0.75l0-2.4z M228.5112,96.85c0-1.71,1.23-2.7,2.58-2.7c1.56,0,2.52,0.81,2.52,2.7c0,1.77-1.29,2.73-2.52,2.73c-1.62,0-2.58-0.96-2.58-2.73z M233.5512,114.85l2.1,0.75l0,2.4l-9,0l0-2.4l2.4-0.75l0-9.75l-2.4-0.75l0-2.4l6.9-0.15l0,13.05z M247.7865,101.5c4.86,0,7.56,2.94,7.56,8.1c0,5.4-3.15,8.7-8.01,8.7c-4.89,0-7.65-2.55-7.65-8.25c0-5.4,3.21-8.55,8.1-8.55z M247.6365,105.1c-2.19,0-3.3,1.2-3.3,4.8c0,3.3,0.96,4.8,3.15,4.8c2.16,0,3.21-1.35,3.21-4.95c0-3.06-0.9-4.65-3.06-4.65z"/><path fill="#000000" d=""/></svg>
